<?xml version="1.0" standalone="no"?>
<!DOCTYPE svg PUBLIC "-//W3C//DTD SVG 20010904//EN"
 "http://www.w3.org/TR/2001/REC-SVG-20010904/DTD/svg10.dtd">
<svg version="1.0" xmlns="http://www.w3.org/2000/svg"
 width="96.000000pt" height="96.000000pt" viewBox="0 0 96.000000 96.000000"
 preserveAspectRatio="xMidYMid meet">
<metadata>
Created by potrace 1.14, written by Peter Selinger 2001-2017
</metadata>
<g transform="translate(0.000000,96.000000) scale(0.100000,-0.100000)"
fill="#000000" stroke="none">
<path d="M468 933 c6 -2 18 -2 25 0 6 3 1 5 -13 5 -14 0 -19 -2 -12 -5z"/>
<path d="M388 923 c6 -2 18 -2 25 0 6 3 1 5 -13 5 -14 0 -19 -2 -12 -5z"/>
<path d="M548 923 c6 -2 18 -2 25 0 6 3 1 5 -13 5 -14 0 -19 -2 -12 -5z"/>
<path d="M288 896 c-137 -56 -241 -182 -268 -326 -15 -81 -16 -80 40 -80 l50
0 0 68 c0 158 95 299 235 350 17 6 23 11 15 11 -8 0 -41 -10 -72 -23z"/>
<path d="M549 840 c-112 -20 -207 -90 -251 -186 -15 -33 -50 -124 -78 -203
-40 -114 -50 -158 -50 -207 0 -53 3 -65 20 -74 11 -6 20 -18 20 -28 1 -16 2
-16 14 1 19 24 40 21 56 -8 17 -31 38 -32 42 -2 2 12 8 22 13 22 6 0 14 -10
20 -22 12 -28 75 -34 75 -8 0 21 30 31 40 14 7 -10 20 -6 59 21 28 19 51 40
51 45 0 6 12 17 28 26 26 15 83 115 98 173 l6 27 -108 -3 -109 -3 -29 -82
c-17 -50 -34 -83 -42 -83 -8 0 -14 9 -14 21 0 18 127 407 137 418 2 3 8 0 14
-6 10 -10 2 -49 -29 -130 -5 -16 213 -19 223 -3 12 19 35 121 35 153 0 42 -31
92 -70 112 -39 20 -110 26 -171 15z"/>
<path d="M844 382 c-1 -108 -30 -180 -103 -253 -37 -36 -75 -63 -111 -78 -30
-12 -41 -19 -25 -16 51 10 148 60 194 101 80 70 141 191 141 281 l0 43 -47 0
-48 0 -1 -78z"/>
<path d="M252 115 c-11 -12 -10 -15 3 -15 8 0 15 7 15 15 0 18 -2 18 -18 0z"/>
<path d="M348 33 c7 -3 16 -2 19 1 4 3 -2 6 -13 5 -11 0 -14 -3 -6 -6z"/>
<path d="M393 23 c9 -2 23 -2 30 0 6 3 -1 5 -18 5 -16 0 -22 -2 -12 -5z"/>
<path d="M538 23 c6 -2 18 -2 25 0 6 3 1 5 -13 5 -14 0 -19 -2 -12 -5z"/>
</g>
</svg>
