<?xml version="1.0" standalone="no"?>
<!DOCTYPE svg PUBLIC "-//W3C//DTD SVG 20010904//EN"
 "http://www.w3.org/TR/2001/REC-SVG-20010904/DTD/svg10.dtd">
<svg version="1.0" xmlns="http://www.w3.org/2000/svg"
 width="96.000000pt" height="96.000000pt" viewBox="0 0 96.000000 96.000000"
 preserveAspectRatio="xMidYMid meet">
<metadata>
Created by potrace 1.14, written by Peter Selinger 2001-2017
</metadata>
<g transform="translate(0.000000,96.000000) scale(0.100000,-0.100000)"
fill="#000000" stroke="none">
<path d="M390 932 c-44 -6 -134 -42 -182 -73 -115 -74 -197 -215 -198 -340 l0
-36 54 0 54 0 -4 59 c-10 201 140 371 336 381 110 6 239 -30 315 -87 42 -32
64 -43 40 -20 -56 52 -141 95 -222 113 -42 9 -144 11 -193 3z"/>
<path d="M508 836 c-71 -19 -150 -76 -190 -138 -32 -50 -111 -255 -145 -378
-20 -73 -13 -128 21 -165 25 -26 29 -28 37 -13 11 19 34 14 43 -9 5 -13 4 -14
-9 -3 -12 10 -15 10 -15 -4 0 -9 -5 -16 -11 -16 -5 0 -7 -4 -4 -10 20 -33 -82
36 -119 80 -14 18 -26 27 -26 22 0 -13 80 -85 128 -116 107 -67 275 -92 391
-56 190 57 320 205 338 382 l5 58 -56 0 -56 0 3 -52 c11 -161 -85 -313 -230
-368 -92 -34 -230 -26 -338 21 l-40 17 27 11 c15 6 34 8 42 5 8 -3 23 -1 34 5
15 8 21 8 24 -1 7 -21 116 12 179 54 31 21 62 38 68 38 7 0 10 4 7 8 -3 5 8
27 24 49 23 31 80 157 80 176 0 7 -207 5 -218 -2 -7 -4 -23 -41 -38 -82 -28
-81 -38 -98 -47 -76 -4 12 116 397 129 416 2 1 7 0 12 -3 6 -3 0 -33 -13 -71
-13 -36 -22 -65 -22 -66 8 -5 220 -3 228 2 15 9 47 133 44 169 -3 41 -43 97
-82 115 -38 18 -139 19 -205 1z m-169 -707 c-16 -10 -23 -4 -14 10 3 6 11 8
17 5 6 -4 5 -9 -3 -15z m131 7 c0 -2 -9 -6 -20 -9 -11 -3 -18 -1 -14 4 5 9 34
13 34 5z"/>
<path d="M825 780 c3 -5 8 -10 11 -10 2 0 4 5 4 10 0 6 -5 10 -11 10 -5 0 -7
-4 -4 -10z"/>
<path d="M850 763 c0 -6 8 -17 18 -24 16 -13 16 -13 2 6 -8 11 -16 22 -17 24
-2 2 -3 0 -3 -6z"/>
</g>
</svg>
